<?xml version="1.0" standalone="no"?>
<!DOCTYPE svg PUBLIC "-//W3C//DTD SVG 20010904//EN"
 "http://www.w3.org/TR/2001/REC-SVG-20010904/DTD/svg10.dtd">
<svg version="1.0" xmlns="http://www.w3.org/2000/svg"
 width="512.000000pt" height="512.000000pt" viewBox="0 0 512.000000 512.000000"
 preserveAspectRatio="xMidYMid meet">

<g transform="translate(0.000000,512.000000) scale(0.100000,-0.100000)"
fill="#000000" stroke="none">
<path d="M1567 5109 c-224 -23 -420 -120 -581 -289 -339 -355 -340 -919 -2
-1279 109 -115 262 -209 421 -257 82 -25 105 -28 255 -28 143 -1 176 2 245 22
226 64 440 225 556 417 139 232 173 512 93 766 -133 423 -545 693 -987 648z
m255 -174 c326 -69 570 -339 607 -673 16 -146 -8 -278 -74 -417 -225 -469
-838 -581 -1221 -222 -257 240 -315 641 -137 947 58 100 200 237 298 287 85
43 153 68 226 82 70 14 228 12 301 -4z"/>
<path d="M1305 4752 c-91 -43 -144 -127 -145 -227 0 -167 154 -289 310 -245
74 20 126 64 160 134 29 58 32 73 27 124 -8 92 -48 155 -132 207 -45 28 -168
32 -220 7z m160 -165 c38 -32 39 -88 3 -124 -63 -63 -166 -4 -144 82 16 62 91
85 141 42z"/>
<path d="M1795 4413 c-121 -44 -205 -118 -258 -231 -30 -62 -32 -75 -32 -172
0 -97 2 -110 32 -172 44 -94 109 -160 202 -206 72 -36 79 -37 180 -37 95 0
112 3 165 28 68 32 85 50 85 92 0 36 -17 61 -52 74 -21 8 -40 5 -92 -14 -36
-14 -80 -25 -98 -25 -154 0 -279 137 -264 288 10 99 94 197 190 223 51 14 134
6 175 -15 17 -9 47 -16 66 -16 57 0 94 67 66 119 -5 10 -37 31 -72 46 -82 38
-215 45 -293 18z"/>
<path d="M3210 5109 c-223 -25 -409 -180 -492 -409 l-23 -65 -3 -1297 -3
-1296 -52 -38 c-334 -239 -508 -663 -442 -1073 74 -455 428 -818 885 -908 98
-19 313 -19 411 1 230 45 423 150 590 323 132 136 226 303 276 490 24 88 27
115 27 273 0 158 -3 185 -27 273 -30 112 -95 255 -158 348 -55 83 -166 198
-251 261 l-68 51 0 168 0 169 -80 0 -80 0 0 -208 0 -208 28 -25 c15 -14 46
-37 70 -52 117 -75 265 -252 326 -390 210 -478 4 -1024 -470 -1243 -136 -63
-209 -78 -389 -78 -132 0 -173 4 -237 22 -334 92 -588 348 -674 679 -35 134
-38 318 -7 443 47 186 125 325 257 455 44 45 108 98 141 119 33 22 66 46 73
54 9 13 12 284 12 1281 0 755 5 1296 10 1340 30 231 216 390 443 379 182 -10
322 -113 387 -286 18 -47 23 -86 27 -224 l6 -168 78 0 79 0 0 153 c0 181 -15
264 -66 364 -113 225 -351 352 -604 322z"/>
<path d="M3068 4416 c-10 -7 -22 -25 -28 -40 -7 -18 -10 -468 -10 -1379 l0
-1352 -56 -34 c-115 -69 -218 -204 -257 -338 -61 -208 -4 -427 153 -583 200
-199 507 -228 744 -69 249 166 332 482 197 755 -47 94 -141 197 -221 240 l-50
27 0 1352 c0 961 -3 1361 -11 1384 -6 17 -19 36 -29 41 -29 16 -411 12 -432
-4z m302 -1488 c0 -1057 3 -1348 13 -1368 7 -14 45 -42 87 -66 95 -51 161
-119 203 -203 30 -63 32 -72 32 -181 0 -111 -1 -118 -34 -184 -104 -211 -352
-303 -558 -207 -88 42 -139 84 -184 154 -48 74 -69 146 -69 234 0 169 84 302
245 390 39 22 75 49 82 63 10 20 13 308 13 1368 l0 1342 85 0 85 0 0 -1342z"/>
<path d="M3720 4010 l0 -80 165 0 165 0 0 80 0 80 -165 0 -165 0 0 -80z"/>
<path d="M3720 3670 l0 -80 165 0 165 0 0 80 0 80 -165 0 -165 0 0 -80z"/>
<path d="M3720 3330 l0 -80 165 0 165 0 0 80 0 80 -165 0 -165 0 0 -80z"/>
<path d="M3720 2990 l0 -80 165 0 165 0 0 80 0 80 -165 0 -165 0 0 -80z"/>
<path d="M3720 2645 l0 -85 165 0 165 0 0 85 0 85 -165 0 -165 0 0 -85z"/>
</g>
</svg>
