<?xml version="1.0" standalone="no"?>
<!DOCTYPE svg PUBLIC "-//W3C//DTD SVG 20010904//EN"
 "http://www.w3.org/TR/2001/REC-SVG-20010904/DTD/svg10.dtd">
<svg version="1.0" xmlns="http://www.w3.org/2000/svg"
 width="512.000000pt" height="512.000000pt" viewBox="0 0 512.000000 512.000000"
 preserveAspectRatio="xMidYMid meet">

<g transform="translate(0.000000,512.000000) scale(0.100000,-0.100000)"
fill="#000000" stroke="none">
<path d="M1060 5093 c0 -109 40 -222 127 -361 99 -160 99 -274 0 -434 -87
-139 -127 -252 -127 -360 l0 -28 150 0 150 0 0 33 c1 43 36 124 99 227 75 123
96 197 96 345 0 148 -21 222 -96 345 -63 103 -98 184 -99 228 l0 32 -150 0
-150 0 0 -27z"/>
<path d="M1660 5093 c0 -109 40 -222 127 -361 53 -86 73 -145 73 -217 0 -72
-20 -131 -73 -217 -87 -139 -127 -252 -127 -360 l0 -28 150 0 150 0 0 33 c1
43 36 124 99 227 75 123 96 197 96 345 0 148 -21 222 -96 345 -63 103 -98 184
-99 228 l0 32 -150 0 -150 0 0 -27z"/>
<path d="M2260 5093 c0 -109 40 -222 127 -361 53 -86 73 -145 73 -217 0 -72
-20 -131 -73 -217 -87 -139 -127 -252 -127 -360 l0 -28 150 0 150 0 0 33 c1
43 36 124 99 227 75 123 96 197 96 345 0 148 -21 222 -96 345 -63 103 -98 184
-99 228 l0 32 -150 0 -150 0 0 -27z"/>
<path d="M2860 5093 c0 -109 40 -222 127 -361 53 -86 73 -145 73 -217 0 -72
-20 -131 -73 -217 -87 -139 -127 -252 -127 -360 l0 -28 150 0 150 0 0 33 c1
43 36 124 99 227 75 123 96 197 96 345 0 148 -21 222 -96 345 -63 103 -98 184
-99 228 l0 32 -150 0 -150 0 0 -27z"/>
<path d="M3460 5093 c0 -109 40 -222 127 -361 53 -86 73 -145 73 -217 0 -72
-20 -131 -73 -217 -87 -139 -127 -252 -127 -360 l0 -28 150 0 150 0 0 33 c1
43 36 124 99 227 75 123 96 197 96 345 0 148 -21 222 -96 345 -63 103 -98 184
-99 228 l0 32 -150 0 -150 0 0 -27z"/>
<path d="M1120 3604 c-158 -31 -306 -133 -383 -265 -53 -89 -69 -154 -74 -296
l-6 -133 -198 0 -199 0 0 -150 0 -150 200 0 199 0 3 -1087 3 -1088 23 -59 c64
-170 187 -292 350 -348 53 -18 89 -23 172 -23 146 0 236 32 345 120 l55 45 55
-45 c109 -88 199 -120 345 -120 146 0 236 32 345 120 l55 45 55 -45 c109 -88
199 -120 345 -120 146 0 236 32 345 120 l55 45 55 -45 c109 -88 199 -120 345
-120 83 0 119 5 172 23 163 56 286 178 350 348 l23 59 3 1088 3 1087 349 0
350 0 0 330 0 330 -150 0 -150 0 0 -180 0 -180 -199 0 -198 0 -6 133 c-3 99
-10 147 -26 191 -59 166 -185 291 -349 348 -53 18 -89 23 -172 23 -146 0 -236
-32 -345 -120 l-55 -45 -55 45 c-109 88 -199 120 -345 120 -146 0 -236 -32
-345 -120 l-55 -45 -55 45 c-109 88 -199 120 -345 120 -146 0 -236 -32 -345
-120 l-55 -45 -55 45 c-64 51 -96 69 -174 97 -55 19 -208 32 -261 22z m173
-310 c28 -10 65 -34 91 -60 82 -81 76 23 76 -1429 0 -1452 6 -1348 -76 -1429
-100 -100 -248 -100 -348 0 -82 81 -76 -23 -76 1429 0 1452 -6 1348 76 1429
71 71 162 92 257 60z m800 0 c28 -10 65 -34 91 -60 82 -81 76 23 76 -1429 0
-1452 6 -1348 -76 -1429 -100 -100 -248 -100 -348 0 -82 81 -76 -23 -76 1429
0 1452 -6 1348 76 1429 71 71 162 92 257 60z m800 0 c28 -10 65 -34 91 -60 82
-81 76 23 76 -1429 0 -1452 6 -1348 -76 -1429 -100 -100 -248 -100 -348 0 -82
81 -76 -23 -76 1429 0 1452 -6 1348 76 1429 71 71 162 92 257 60z m800 0 c28
-10 65 -34 91 -60 82 -81 76 23 76 -1429 0 -1452 6 -1348 -76 -1429 -100 -100
-248 -100 -348 0 -82 81 -76 -23 -76 1429 0 1452 -6 1348 76 1429 71 71 162
92 257 60z"/>
</g>
</svg>
