<?xml version="1.0" standalone="no"?>
<!DOCTYPE svg PUBLIC "-//W3C//DTD SVG 20010904//EN"
 "http://www.w3.org/TR/2001/REC-SVG-20010904/DTD/svg10.dtd">
<svg version="1.0" xmlns="http://www.w3.org/2000/svg"
 width="512.000000pt" height="512.000000pt" viewBox="0 0 512.000000 512.000000"
 preserveAspectRatio="xMidYMid meet">

<g transform="translate(0.000000,512.000000) scale(0.100000,-0.100000)"
fill="#000000" stroke="none">
<path d="M2321 5109 c-486 -43 -989 -249 -1376 -564 -114 -92 -294 -274 -384
-387 -229 -287 -417 -675 -495 -1023 -49 -218 -60 -325 -60 -575 0 -250 11
-357 60 -575 79 -355 272 -749 509 -1040 92 -114 274 -294 387 -384 287 -229
675 -417 1023 -495 218 -49 325 -60 575 -60 250 0 357 11 575 60 261 58 603
204 828 353 389 259 688 599 893 1016 165 337 246 658 261 1033 23 598 -168
1183 -545 1672 -84 109 -323 348 -432 432 -528 407 -1164 595 -1819 537z m579
-184 c133 -20 323 -66 454 -111 214 -74 501 -232 690 -382 91 -71 317 -297
388 -388 150 -189 308 -476 382 -690 93 -273 130 -497 130 -794 0 -243 -15
-369 -69 -585 -213 -844 -886 -1517 -1730 -1730 -216 -54 -342 -69 -585 -69
-297 0 -521 37 -794 130 -214 74 -501 232 -690 382 -91 71 -317 297 -388 388
-150 189 -308 476 -382 690 -45 133 -91 321 -113 464 -24 159 -24 501 0 660
39 259 109 485 221 715 126 257 251 432 460 641 147 146 224 210 378 312 317
209 692 341 1083 381 123 13 437 5 565 -14z"/>
<path d="M2329 4664 l-24 -26 -3 -771 -2 -772 -47 -25 c-78 -41 -176 -148
-220 -238 l-38 -79 -65 -7 c-151 -17 -346 -74 -482 -142 -37 -19 -70 -34 -73
-34 -12 0 -3 130 15 221 34 164 86 292 178 434 62 95 238 269 339 335 l83 53
-36 66 c-20 36 -40 69 -43 74 -10 10 -171 -98 -246 -165 -301 -266 -465 -625
-466 -1019 l0 -119 -112 -110 c-61 -60 -112 -110 -113 -110 -1 0 -8 37 -15 83
-21 124 -18 409 5 532 80 435 332 818 697 1063 71 47 267 152 286 152 4 0 14
4 22 9 11 7 9 22 -14 85 -15 42 -31 76 -35 76 -19 0 -164 -68 -250 -117 -282
-161 -517 -399 -674 -683 -223 -402 -283 -874 -168 -1323 l20 -78 -34 -75
c-53 -113 -76 -212 -77 -334 -3 -175 53 -310 130 -312 22 -1 70 21 159 71 104
60 129 70 139 59 7 -7 34 -38 61 -68 273 -313 681 -529 1107 -585 355 -46 715
16 1035 178 45 23 82 45 82 49 0 6 -66 125 -76 137 -2 2 -53 -19 -113 -48 -60
-28 -135 -60 -167 -72 -525 -181 -1111 -80 -1543 265 -79 63 -241 225 -241
240 1 6 49 39 108 72 l107 61 90 -86 c185 -177 379 -284 629 -348 82 -20 134
-26 273 -30 183 -6 294 7 430 49 l62 19 -28 77 c-18 47 -34 76 -43 75 -7 0
-49 -11 -93 -23 -114 -31 -365 -39 -490 -16 -238 45 -469 163 -623 319 l-52
53 270 156 270 156 74 -37 c96 -49 170 -65 289 -64 l98 1 58 -77 c121 -159
312 -314 501 -408 336 -166 746 -186 1018 -49 182 92 291 244 220 307 -13 11
-313 188 -668 393 l-645 373 -11 89 c-17 143 -50 233 -116 317 l-30 38 35 82
c149 352 148 760 -1 1105 -143 331 -398 551 -638 552 -41 0 -55 -5 -75 -26z
m264 -210 c164 -108 302 -334 363 -594 39 -166 36 -388 -6 -567 -19 -81 -68
-223 -77 -223 -2 0 -26 11 -53 25 -73 37 -163 57 -260 59 l-85 1 -3 665 c-1
366 0 671 3 678 6 15 58 -4 118 -44z m152 -1513 c210 -104 297 -352 196 -566
-76 -162 -263 -263 -438 -236 -142 22 -260 107 -321 231 -118 238 -1 512 253
597 26 8 75 12 142 10 91 -3 109 -7 168 -36z m-780 -418 c12 -113 52 -227 107
-305 l19 -27 -78 -45 c-43 -25 -159 -92 -258 -150 l-180 -104 -17 21 c-25 30
-112 211 -132 272 -8 28 -22 81 -30 118 l-14 68 77 45 c130 76 350 150 488
163 7 1 14 -21 18 -56z m1737 -524 c315 -182 577 -334 582 -336 15 -10 -119
-89 -188 -111 -143 -47 -351 -48 -542 -3 -192 47 -385 151 -538 292 -76 70
-169 177 -164 189 2 5 31 29 65 54 68 50 132 124 169 198 13 26 28 48 33 48 5
0 267 -149 583 -331z m-2452 189 c21 -84 77 -217 126 -301 25 -43 43 -81 40
-84 -2 -3 -51 -31 -107 -64 -75 -44 -105 -56 -115 -48 -17 14 -130 237 -145
287 -12 41 -11 42 32 99 48 64 138 163 149 163 3 0 12 -23 20 -52z m-279 -450
c17 -34 42 -79 55 -100 13 -21 24 -40 24 -42 0 -7 -117 -76 -129 -76 -15 0
-15 163 1 229 6 28 13 51 15 51 1 0 17 -28 34 -62z"/>
<path d="M2513 2809 c-198 -37 -275 -285 -132 -428 158 -159 431 -46 431 179
0 160 -142 278 -299 249z m104 -191 c51 -48 15 -138 -56 -138 -47 0 -81 32
-81 79 0 72 84 109 137 59z"/>
<path d="M3413 4038 l-41 -72 66 -44 c254 -167 453 -393 582 -664 149 -312
192 -627 135 -984 l-7 -41 63 -12 c35 -7 73 -15 85 -17 19 -5 22 1 35 88 18
118 18 436 0 538 -82 476 -324 880 -696 1161 -53 41 -171 119 -178 119 -2 0
-21 -32 -44 -72z"/>
<path d="M3410 3510 l-52 -60 70 -74 c77 -81 152 -188 199 -281 69 -136 123
-346 123 -476 l0 -59 88 0 87 0 -6 98 c-22 311 -150 604 -361 827 -44 47 -84
85 -88 85 -4 0 -31 -27 -60 -60z"/>
</g>
</svg>
