<?xml version="1.0" standalone="no"?>
<!DOCTYPE svg PUBLIC "-//W3C//DTD SVG 20010904//EN"
 "http://www.w3.org/TR/2001/REC-SVG-20010904/DTD/svg10.dtd">
<svg version="1.0" xmlns="http://www.w3.org/2000/svg"
 width="512.000000pt" height="512.000000pt" viewBox="0 0 512.000000 512.000000"
 preserveAspectRatio="xMidYMid meet">

<g transform="translate(0.000000,512.000000) scale(0.100000,-0.100000)"
fill="#000000" stroke="none">
<path d="M2460 4944 c-38 -24 -349 -552 -638 -1084 -496 -915 -783 -1611 -833
-2020 -27 -223 26 -525 134 -765 336 -747 1167 -1101 1911 -814 601 232 1009
855 983 1499 -7 153 -27 260 -88 454 -186 592 -585 1402 -1222 2481 -71 121
-137 228 -146 237 -24 26 -71 31 -101 12z m198 -481 c662 -1137 1077 -2024
1177 -2517 56 -278 13 -577 -124 -856 -67 -138 -148 -248 -270 -371 -162 -162
-319 -261 -517 -327 -698 -234 -1441 140 -1698 853 -57 159 -94 400 -82 540
38 461 459 1401 1191 2660 71 121 135 232 144 247 9 16 19 28 22 28 4 0 75
-116 157 -257z"/>
<path d="M2025 2221 c-116 -52 -186 -225 -155 -376 30 -148 126 -245 241 -245
39 0 125 47 154 86 55 72 70 120 70 234 0 92 -3 112 -26 160 -35 74 -70 114
-124 139 -55 26 -107 26 -160 2z m97 -152 c53 -28 75 -166 39 -246 -43 -95
-106 -73 -132 46 -14 65 3 149 36 185 27 30 29 30 57 15z"/>
<path d="M2865 2229 c-21 -10 -813 -1111 -836 -1161 -24 -54 31 -116 91 -103
27 6 83 80 445 587 317 444 415 588 415 610 0 57 -62 93 -115 67z"/>
<path d="M2830 1584 c-116 -50 -188 -215 -160 -370 48 -280 315 -345 432 -106
31 62 33 73 33 172 0 99 -2 109 -33 172 -61 124 -169 176 -272 132z m92 -155
c30 -16 58 -86 58 -149 0 -91 -49 -171 -95 -154 -9 4 -25 25 -37 48 -46 88
-16 249 50 265 2 1 12 -4 24 -10z"/>
</g>
</svg>
