<?xml version="1.0" standalone="no"?>
<!DOCTYPE svg PUBLIC "-//W3C//DTD SVG 20010904//EN"
 "http://www.w3.org/TR/2001/REC-SVG-20010904/DTD/svg10.dtd">
<svg version="1.0" xmlns="http://www.w3.org/2000/svg"
 width="512.000000pt" height="512.000000pt" viewBox="0 0 512.000000 512.000000"
 preserveAspectRatio="xMidYMid meet">

<g transform="translate(0.000000,512.000000) scale(0.100000,-0.100000)"
fill="#000000" stroke="none">
<path d="M2410 4895 l0 -225 150 0 150 0 0 225 0 225 -150 0 -150 0 0 -225z"/>
<path d="M1010 4475 l-105 -105 160 -160 160 -160 107 107 108 108 -157 157
c-87 87 -160 158 -163 158 -3 0 -52 -47 -110 -105z"/>
<path d="M3847 4422 l-157 -157 108 -108 107 -107 160 160 160 160 -105 105
c-58 58 -107 105 -110 105 -3 0 -76 -71 -163 -158z"/>
<path d="M2441 4209 c-549 -68 -988 -489 -1082 -1038 -20 -114 -15 -331 10
-450 35 -165 79 -268 202 -472 112 -183 201 -397 245 -586 38 -165 44 -258 44
-740 l0 -473 38 -1 c36 0 38 -2 69 -67 58 -121 182 -244 307 -305 264 -128
572 -86 782 106 65 60 146 170 173 235 11 27 19 32 47 32 l34 0 0 403 c0 221
5 465 10 541 24 327 104 567 294 873 150 243 205 411 213 659 4 115 2 174 -11
250 -87 513 -480 916 -991 1019 -99 20 -285 27 -384 14z m348 -314 c330 -69
606 -326 707 -660 25 -83 28 -104 28 -260 0 -157 -2 -177 -27 -260 -33 -106
-73 -187 -155 -317 -188 -295 -297 -619 -321 -953 l-6 -90 -137 -3 -138 -3 0
329 0 329 65 33 c77 39 161 123 200 199 28 56 60 185 51 208 -4 10 -38 13
-149 13 l-143 0 -11 -43 c-22 -82 -81 -127 -168 -127 -78 0 -137 44 -159 121
l-13 44 -147 3 -146 3 0 -40 c0 -54 33 -157 69 -213 43 -68 114 -132 187 -170
l64 -33 0 -327 0 -328 -139 0 -138 0 -12 118 c-34 336 -135 626 -335 959 -127
211 -167 342 -168 543 -1 263 97 496 284 676 236 227 541 316 857 249z m221
-2995 l0 -150 -422 2 -423 3 -3 148 -3 147 426 0 425 0 0 -150z m-135 -479
c-85 -84 -222 -131 -339 -117 -69 9 -179 63 -225 110 l-35 36 314 0 315 0 -30
-29z"/>
<path d="M370 2930 l0 -150 225 0 225 0 0 150 0 150 -225 0 -225 0 0 -150z"/>
<path d="M4310 2930 l0 -150 225 0 225 0 0 150 0 150 -225 0 -225 0 0 -150z"/>
</g>
</svg>
