<?xml version="1.0" standalone="no"?>
<!DOCTYPE svg PUBLIC "-//W3C//DTD SVG 20010904//EN"
 "http://www.w3.org/TR/2001/REC-SVG-20010904/DTD/svg10.dtd">
<svg version="1.0" xmlns="http://www.w3.org/2000/svg"
 width="512.000000pt" height="512.000000pt" viewBox="0 0 512.000000 512.000000"
 preserveAspectRatio="xMidYMid meet">

<g transform="translate(0.000000,512.000000) scale(0.100000,-0.100000)"
fill="#000000" stroke="none">
<path d="M641 5110 c-132 -28 -258 -125 -316 -244 -128 -260 4 -557 284 -642
61 -18 185 -18 249 1 267 80 401 378 284 630 -52 110 -161 207 -270 241 -61
19 -175 26 -231 14z"/>
<path d="M4325 5114 c-166 -35 -282 -122 -346 -259 -119 -254 16 -552 288
-631 40 -12 82 -15 147 -12 80 3 102 8 167 39 283 135 352 498 138 724 -97
103 -272 164 -394 139z"/>
<path d="M2463 4440 c-226 -41 -415 -219 -468 -441 -69 -295 103 -597 395
-690 91 -30 249 -30 340 0 299 96 468 402 390 705 -48 188 -201 348 -388 406
-75 23 -198 32 -269 20z"/>
<path d="M161 4091 c-40 -11 -77 -37 -105 -75 -21 -27 -21 -40 -24 -588 -2
-553 -2 -561 19 -604 31 -64 71 -89 144 -89 47 0 67 5 93 24 18 13 34 22 36
20 2 -2 15 -202 30 -444 37 -596 37 -597 71 -641 45 -59 68 -64 305 -64 236 0
260 5 305 64 34 45 36 64 70 621 15 242 29 446 31 453 3 10 12 7 36 -10 26
-18 46 -23 93 -23 73 0 118 27 146 89 17 38 19 76 19 597 l0 556 -23 34 c-12
18 -38 44 -56 56 -32 22 -44 23 -191 23 -86 0 -339 2 -561 5 -222 2 -419 1
-438 -4z"/>
<path d="M4093 4091 c-284 -6 -303 -7 -329 -27 -15 -11 -37 -33 -48 -48 -21
-27 -21 -40 -24 -584 -3 -624 -4 -617 66 -670 49 -37 140 -39 190 -3 18 13 34
22 36 20 1 -2 15 -206 30 -454 34 -567 37 -586 71 -631 45 -59 69 -64 305 -64
237 0 260 5 305 64 34 45 35 54 71 636 15 245 29 447 30 449 2 2 18 -7 36 -20
26 -19 46 -24 93 -24 73 0 113 25 144 88 21 42 21 56 21 590 0 362 -4 555 -11
574 -13 35 -45 70 -84 91 -26 15 -69 17 -315 18 -157 0 -421 -2 -587 -5z"/>
<path d="M1781 3118 c-24 -13 -57 -43 -75 -67 l-31 -43 -3 -717 -2 -718 28
-54 c59 -112 184 -148 291 -82 50 32 51 32 55 10 3 -12 23 -306 45 -654 36
-563 42 -636 60 -671 26 -50 81 -98 128 -111 50 -14 516 -14 566 0 21 5 54 24
74 42 72 63 70 52 114 750 22 348 42 643 45 656 l5 24 27 -25 c42 -39 72 -51
133 -52 78 -1 142 39 181 113 l28 54 -2 716 -3 716 -27 38 c-14 22 -43 51 -65
65 l-38 27 -746 3 -745 2 -43 -22z"/>
</g>
</svg>
